<?xml version="1.0" encoding="utf-8"?>
<!-- Generator: Adobe Illustrator 24.0.1, SVG Export Plug-In . SVG Version: 6.00 Build 0)  -->
<svg version="1.1" id="Capa_1" xmlns="http://www.w3.org/2000/svg" xmlns:xlink="http://www.w3.org/1999/xlink" x="0px" y="0px"
	 viewBox="0 0 322 388" style="enable-background:new 0 0 322 388;" xml:space="preserve">
<style type="text/css">
	.st0{fill:#DFE366;}
</style>
<g>
	<path class="st0" d="M140.99,364.01c-6.69-2.21-13.82-3.59-19.98-6.81c-14.34-7.49-22.91-19.77-26.66-35.7c34.8,0,69.3,0,104.78,0
		c-1.8,4.7-3.05,9.26-5.21,13.35c-8.47,16.06-21.76,25.64-39.75,28.58c-0.64,0.1-1.24,0.39-1.86,0.59
		C148.54,364.01,144.77,364.01,140.99,364.01z"/>
	<path class="st0" d="M155.8,51.89c-14.01,33.28-12.81,65.42,6.62,95.66c19.34,30.11,47.88,44.77,83.14,46.15
		c1.27,7.17,2.11,14.33,3.85,21.26c4.68,18.58,14.32,34.29,28.82,46.86c8.25,7.15,12.23,15.7,9.59,26.57
		c-2.64,10.85-12.56,18.14-25.04,18.8c-1.11,0.06-2.22,0.04-3.33,0.04c-75.36,0-150.72,0-226.08,0.01c-5.4,0-10.6-0.71-15.46-3.23
		c-15.63-8.09-18.32-28.4-5.05-40.22c11.45-10.2,20.64-21.94,26.64-36.09c4.77-11.26,7.38-23.01,7.52-35.23
		c0.15-13.65,0.02-27.3,0.07-40.95c0.17-46.03,29.58-84.5,73.94-96.75C132.27,51.66,143.72,50.91,155.8,51.89z"/>
	<path class="st0" d="M245.85,165.02c-39.36-0.12-71.01-31.97-70.88-71.31C175.1,54.62,207.04,22.9,246.16,23
		c39.34,0.1,71.02,32.02,70.82,71.36C316.79,133.63,285.06,165.14,245.85,165.02z"/>
</g>
</svg>
