<?xml version="1.0" encoding="utf-8"?>
<!-- Generator: Adobe Illustrator 24.0.1, SVG Export Plug-In . SVG Version: 6.00 Build 0)  -->
<svg version="1.1" id="Capa_1" xmlns="http://www.w3.org/2000/svg" xmlns:xlink="http://www.w3.org/1999/xlink" x="0px" y="0px"
	 viewBox="0 0 322 388" style="enable-background:new 0 0 322 388;" xml:space="preserve">
<style type="text/css">
	.st0{fill:#DFE366;}
</style>
<g>
	<path class="st0" d="M57.85,364c-2.66,0-5.33,0-7.99,0c-0.82-0.28-1.63-0.6-2.46-0.82c-11.2-3.07-18.43-12.22-18.72-23.83
		c-0.08-3.11-0.02-6.21-0.02-9.32c0-91.21-0.01-182.43,0.01-273.64c0-20.07,13.33-33.38,33.38-33.38
		c62.93-0.01,125.86-0.02,188.79,0.05c3.4,0,6.92,0.29,10.19,1.17c14.52,3.94,23.2,16.09,23.2,32.16
		c0.01,92.88-0.14,185.76,0.14,278.64c0.05,15.72-7.64,25.87-21.11,28.75c-0.09,0.02-0.16,0.15-0.24,0.23c-2.66,0-5.33,0-7.99,0
		c-7.59-1.67-13.04-6.5-18.35-11.86c-22.48-22.68-45.12-45.19-67.71-67.76c-8.06-8.05-16.99-8.04-25.05,0.01
		c-22.59,22.57-45.23,45.08-67.71,67.76C70.9,357.51,65.43,362.31,57.85,364z"/>
</g>
</svg>
