<?xml version="1.0" encoding="utf-8"?>
<!-- Generator: Adobe Illustrator 24.0.1, SVG Export Plug-In . SVG Version: 6.00 Build 0)  -->
<svg version="1.1" id="Capa_1" xmlns="http://www.w3.org/2000/svg" xmlns:xlink="http://www.w3.org/1999/xlink" x="0px" y="0px"
	 viewBox="0 0 284 173" style="enable-background:new 0 0 284 173;" xml:space="preserve">
<style type="text/css">
	.st0{fill:#FFFFFF;}
</style>
<g>
	<path class="st0" d="M270.62,87.53c-2.71,3.95-5.13,8.13-8.16,11.82c-16.36,19.89-35.48,36.49-58.59,48.19
		c-15.77,7.98-32.4,13.07-50.05,14.75c-34.29,3.25-65.29-5.85-93.69-24.79c-18.44-12.3-33.81-27.8-47.21-45.35
		c-3.31-4.33-3.31-9.01-0.02-13.32c15.46-20.24,33.52-37.64,55.6-50.6c18.26-10.72,37.81-17.52,58.98-19.52
		c30.81-2.91,59.26,4.25,85.73,19.91c21.89,12.95,39.76,30.3,55.07,50.44c1,1.31,1.58,2.94,2.35,4.43
		C270.62,84.82,270.62,86.17,270.62,87.53z M141.09,140.13c30.62-0.46,54.44-25.16,54.11-56.12c-0.31-29.16-25.58-53.59-54.98-53.16
		c-30.94,0.45-54.64,24.92-54.34,56.1C86.16,116.22,111.45,140.57,141.09,140.13z"/>
	<path class="st0" d="M170,85.51c-0.1,16.33-13.59,29.56-29.97,29.41c-15.97-0.15-29-13.5-28.92-29.62
		c0.09-16.23,13.66-29.42,30.11-29.26C157.06,56.18,170.1,69.55,170,85.51z"/>
</g>
</svg>
