<?xml version="1.0" encoding="utf-8"?>
<!-- Generator: Adobe Illustrator 24.0.1, SVG Export Plug-In . SVG Version: 6.00 Build 0)  -->
<svg version="1.1" id="Capa_1" xmlns="http://www.w3.org/2000/svg" xmlns:xlink="http://www.w3.org/1999/xlink" x="0px" y="0px"
	 viewBox="0 0 1118 219" style="enable-background:new 0 0 1118 219;" xml:space="preserve">
<style type="text/css">
	.st0{fill:#FFFF00;}
	.st1{fill:none;stroke:#FCEE21;stroke-width:5;stroke-miterlimit:10;}
</style>
<polygon class="st0" points="106.74,22.14 134.19,77.75 195.56,86.67 151.15,129.96 161.64,191.08 106.74,162.22 51.85,191.08 
	62.33,129.96 17.93,86.67 79.3,77.75 "/>
<polygon class="st0" points="333.35,22.14 360.8,77.75 422.17,86.67 377.76,129.96 388.25,191.08 333.35,162.22 278.46,191.08 
	288.94,129.96 244.54,86.67 305.91,77.75 "/>
<polygon class="st0" points="559.96,22.14 587.41,77.75 648.78,86.67 604.37,129.96 614.86,191.08 559.96,162.22 505.07,191.08 
	515.55,129.96 471.14,86.67 532.52,77.75 "/>
<polygon class="st0" points="786.57,22.14 814.02,77.75 875.39,86.67 830.98,129.96 841.46,191.08 786.57,162.22 731.68,191.08 
	742.16,129.96 697.75,86.67 759.13,77.75 "/>
<polygon class="st1" points="1013.18,22.14 1040.63,77.75 1102,86.67 1057.59,129.96 1068.07,191.08 1013.18,162.22 958.29,191.08 
	968.77,129.96 924.36,86.67 985.74,77.75 "/>
</svg>
